HIERARCHY
ROOT Hips
{
  OFFSET 279.157 85.6768 304.565
  CHANNELS 6 Xposition Yposition Zposition Zrotation Xrotation Yrotation
  JOINT LeftUpLeg
  {
    OFFSET 8.64259 1.95398 -2.38835
    CHANNELS 3 Zrotation Xrotation Yrotation
    JOINT LeftLeg
    {
      OFFSET 43.7702 0 0
      CHANNELS 3 Zrotation Xrotation Yrotation
      JOINT LeftFoot
      {
        OFFSET 40.6238 0 0
        CHANNELS 3 Zrotation Xrotation Yrotation
        JOINT LeftToeBase
        {
          OFFSET 12.7242 0 0
          CHANNELS 3 Zrotation Xrotation Yrotation
          End Site
          {
            OFFSET 0 0 0
          }
        }
      }
    }
  }
  JOINT RightUpLeg
  {
    OFFSET -8.2249 1.95398 -2.59336
    CHANNELS 3 Zrotation Xrotation Yrotation
    JOINT RightLeg
    {
      OFFSET 43.5653 0 0
      CHANNELS 3 Zrotation Xrotation Yrotation
      JOINT RightFoot
      {
        OFFSET 40.6238 0 0
        CHANNELS 3 Zrotation Xrotation Yrotation
        JOINT RightToeBase
        {
          OFFSET 12.7242 0 0
          CHANNELS 3 Zrotation Xrotation Yrotation
          End Site
          {
            OFFSET 0 0 0
          }
        }
      }
    }
  }
  JOINT Spine
  {
    OFFSET 0.165834 0.87714 6.61349
    CHANNELS 3 Zrotation Xrotation Yrotation
    JOINT Spine1
    {
      OFFSET 7.38963 1.71661e-005 0
      CHANNELS 3 Zrotation Xrotation Yrotation
      JOINT Spine2
      {
        OFFSET 11.9445 1.14441e-005 0
        CHANNELS 3 Zrotation Xrotation Yrotation
        JOINT Spine3
        {
          OFFSET 14.7254 4.19617e-005 0
          CHANNELS 3 Zrotation Xrotation Yrotation
          JOINT Spine4
          {
            OFFSET 10.9679 0 0
            CHANNELS 3 Zrotation Xrotation Yrotation
            JOINT RightShoulder
            {
              OFFSET 2.46616 -1.6653 3.69651
              CHANNELS 3 Zrotation Xrotation Yrotation
              JOINT RightArm
              {
                OFFSET 13.0012 0 0
                CHANNELS 3 Zrotation Xrotation Yrotation
                JOINT RightForeArm
                {
                  OFFSET 28.7848 1.52588e-005 0
                  CHANNELS 3 Zrotation Xrotation Yrotation
                  JOINT RightHand
                  {
                    OFFSET 26.5688 1.52588e-005 0
                    CHANNELS 3 Zrotation Xrotation Yrotation
                    End Site
                    {
                      OFFSET 0 0 0
                    }
                  }
                }
              }
            }
            JOINT LeftShoulder
            {
              OFFSET 2.38034 -1.29275 -3.7523
              CHANNELS 3 Zrotation Xrotation Yrotation
              JOINT LeftArm
              {
                OFFSET 16.3182 6.10351e-005 0
                CHANNELS 3 Zrotation Xrotation Yrotation
                JOINT LeftForeArm
                {
                  OFFSET 27.0901 0 0
                  CHANNELS 3 Zrotation Xrotation Yrotation
                  JOINT LeftHand
                  {
                    OFFSET 24.5451 1.52588e-005 0
                    CHANNELS 3 Zrotation Xrotation Yrotation
                    End Site
                    {
                      OFFSET 0 0 0
                    }
                  }
                }
              }
            }
            JOINT Neck
            {
              OFFSET 5.0226 -0.0266342 0
              CHANNELS 3 Zrotation Xrotation Yrotation
              JOINT Head
              {
                OFFSET 6.69364 2.86102e-005 0
                CHANNELS 3 Zrotation Xrotation Yrotation
                End Site
                {
                  OFFSET 0 0 0
                }
              }
            }
          }
        }
      }
    }
  }
}
MOTION
Frames:	10
Frame Time:	0.0416667
87.0939 94.5301 106.673 -89.8051 46.3635 -87.5286 -170.095 13.2835 88.722 -45.0508 16.559 -2.3102 86.1343 18.9067 -0.101097 27.5392 -0.495041 -0.680331 178.775 23.6919 89.9634 -76.8441 -5.16331 -4.41444 69.3078 -6.01488 -4.6896 10.4173 4.23288 7.27914 -0.352475 8.25631 -90.5629 10.3611 -0.959854 -1.03275 -1.30983 -1.00438 -0.989515 -23.8436 -0.605124 -1.27345 -3.83098 -0.605127 -1.27345 91.51 -30.9328 -103.423 31.0371 -10.5442 11.2674 -50.0406 -6.70813 -84.2278 -36.5716 -0.217408 -14.1775 -89.9113 -53.0127 79.4922 -8.38438 0.688734 -8.23426 39.6529 -8.69693 -95.4977 -2.41416 -0.0522332 -26.2444 25.1524 5.36241 -5.84931 -5.53666 7.05431 4.60325 
93.4817 95.1432 113.336 -94.2568 48.5632 -85.9771 -170.335 17.5896 87.4384 -45.851 15.7858 -3.21832 80.3844 14.4629 0.851117 23.869 -2.21243 -1.53985 178.326 7.57535 84.6042 -70.765 -10.159 -6.18395 63.5246 -2.78012 -3.75587 13.5358 3.00934 8.45154 0.483465 8.24757 -90.3267 10.3784 0.813627 -0.719917 -1.29252 0.78117 -0.755041 -23.8286 0.992356 -0.442089 -3.81593 0.992366 -0.442098 90.293 -29.2463 -106.479 29.4201 -1.17232 3.12899 -53.9087 -12.6032 -92.1021 -39.3262 -1.48922 -11.105 -88.525 -55.6796 81.9514 -14.9003 5.65371 11.4121 43.5048 -9.09914 -94.5222 -7.30342 0.9757 -28.7761 17.2092 2.89572 -3.21122 -2.3246 3.73957 2.31467 
100.124 96.2409 119.961 -96.0737 51.1837 -86.5695 -170.967 21.005 86.0206 -40.6825 14.883 -4.50863 71.8858 8.25912 1.77212 20.9868 -3.08256 -3.5961 177.259 -4.14947 84.2603 -59.4239 -19.6607 -9.15428 59.9481 -0.311221 -1.16985 17.1429 2.14149 7.94956 1.41016 8.15362 -90.0558 10.5735 2.78305 -0.361047 -1.09455 2.76447 -0.483287 -23.6533 2.76279 0.492731 -3.6406 2.7628 0.492732 90.6629 -25.0459 -107.391 30.4585 2.92336 -4.01856 -45.6553 -8.60484 -90.7835 -39.2743 -0.292178 -12.8258 -86.7719 -53.7737 84.1537 -19.9884 14.2424 27.397 36.7015 -13.3057 -96.0994 -7.4212 1.07401 -30.3315 12.7025 0.161949 -2.86599 -1.23145 0.875755 0.967967 
107.646 96.6711 126.998 -93.0547 52.5169 -89.7995 -171.661 26.119 86.6287 -32.2074 19.9772 -5.74766 63.3771 2.17738 1.77331 19.8052 -4.33029 -1.51792 176.892 -8.97786 84.5181 -49.3203 -30.7128 -11.2285 59.5776 -0.238259 -1.64092 20.9994 0.911897 8.83289 2.00879 8.02393 -89.8948 10.8345 4.04826 -0.169621 -0.830118 4.03686 -0.34793 -23.4139 3.91177 1.05683 -3.40128 3.91177 1.05682 92.7665 -19.5013 -105.025 31.6796 4.89137 -11.1198 -45.0622 -6.46679 -92.1495 -38.0979 0.309371 -14.8837 -87.68 -50.3139 82.2559 -23.5589 17.3395 36.9729 35.0195 -16.5833 -97.794 -5.4585 0.613812 -30.234 13.9422 -1.88507 -2.74457 -2.97108 -1.12639 0.694911 
116.15 95.2628 134.543 -87.1218 52.001 -94.1242 -170.899 35.2343 88.0308 -34.9849 29.6596 -6.73391 65.5414 3.6345 0.103418 19.7867 -6.89614 5.93136 177.974 -7.65518 87.5325 -39.943 -27.7785 -9.40666 65.1956 -4.06834 -3.21867 33.2796 -2.51471 11.098 1.89544 7.7874 -89.832 11.3043 3.85027 -0.0453289 -0.360902 3.84454 -0.214996 -22.9391 3.68563 1.11554 -2.92649 3.68562 1.11554 93.4912 -17.2052 -104.245 30.7256 8.29232 -16.4805 -38.4338 -4.56829 -97.1955 -40.7028 0.468689 -13.1949 -88.9769 -47.4684 79.7503 -26.5738 16.3289 41.1129 36.4214 -19.0096 -100.13 -4.01333 0.292179 -30.795 18.5873 -1.79724 -2.70608 -6.11948 -0.964737 1.04689 
125.213 92.7588 142.5 -88.8896 50.5332 -91.5978 -165.678 42.0984 88.0381 -55.314 25.8363 -5.90368 72.3574 8.51524 1.50295 20.3839 -5.65063 3.34097 178.575 -3.69828 91.0446 -41.9671 -15.9627 -6.98106 80.0651 -13.2798 -3.06648 46.8272 -5.7813 7.23583 1.38176 8.0429 -90.1009 10.7937 2.70488 -0.45088 -0.874526 2.6824 -0.569577 -23.432 2.71524 0.383508 -3.41939 2.71521 0.383502 93.8887 -17.923 -102.953 30.1154 8.03273 -19.6482 -36.9054 -2.81175 -101.343 -44.5249 0.811283 -13.147 -88.7804 -49.581 80.4707 -25.3717 17.4951 35.894 38.5479 -19.6881 -100.658 -5.73199 0.754726 -32.4064 21.3142 0.118527 -1.78657 -5.42626 0.639054 1.76451 
132.972 91.1823 149.931 -93.6989 47.4896 -83.1308 -165.956 43.7062 92.3296 -75.1304 20.0878 -0.665217 75.206 10.0862 1.19133 20.7422 -5.71637 4.18546 177.454 2.21096 95.1441 -49.1282 -10.3417 -2.87044 88.3947 -17.2094 0.996187 37.8898 -3.41472 7.94615 0.643843 8.53674 -90.7331 9.80467 0.951301 -1.53019 -1.86687 0.883042 -1.57057 -24.4001 1.36718 -1.1736 -4.38747 1.36716 -1.1736 92.5208 -22.785 -104.239 29.222 6.60769 -16.5651 -40.5076 2.36651 -100.86 -39.7333 0.344513 -13.306 -87.4385 -54.2705 83.2714 -19.9219 19.0642 20.0697 39.7787 -15.531 -96.6897 -6.93795 0.946075 -29.9413 24.3912 2.28498 -3.66876 -5.90115 3.36914 3.16912 
138.381 91.2781 155.111 -95.0649 44.4568 -81.0382 -169.197 38.0698 95.7999 -84.1997 20.9309 2.39694 69.5268 7.35565 4.63757 23.5798 -2.12351 -2.3389 174.963 7.73155 95.6356 -52.6106 -13.1584 -0.404539 86.5575 -17.0906 -1.19461 37.2398 -3.24413 7.51411 0.141469 8.65701 -90.9406 9.55413 -0.141947 -1.85317 -2.1181 -0.223357 -1.84515 -24.6431 0.421481 -1.81019 -4.63043 0.421463 -1.81021 90.9978 -25.4014 -106.54 32.9401 4.44844 -3.85165 -37.9194 -2.66553 -96.0427 -39.3644 1.13934 -15.307 -88.9134 -56.2927 81.5188 -13.9973 18.5876 1.64721 41.3268 -11.6226 -93.5568 -7.48328 1.05201 -29.3739 21.7863 3.5338 -2.70057 -3.58137 4.25547 1.4699 
142.685 91.8105 159.798 -97.2234 44.0212 -80.107 -170.462 25.9491 98.0678 -83.9739 19.9033 3.63739 67.3354 6.01845 4.45699 25.9938 -1.59792 0.468533 175.057 10.8554 95.2557 -53.2406 -12.929 -0.531353 86.1978 -16.8482 -1.90694 32.1987 -1.98552 9.12629 -0.0892222 8.52483 -90.7364 9.81922 -0.511521 -1.41966 -1.85236 -0.573474 -1.39579 -24.3814 -0.0612424 -1.50774 -4.36879 -0.0612399 -1.50774 90.9678 -28.5046 -105.375 38.0668 -2.37585 7.14247 -34.9993 -7.41813 -85.7845 -36.2992 1.85507 -18.0619 -88.9071 -53.9639 81.1128 -10.9857 18.3065 -13.5217 39.0178 -9.86361 -92.134 -4.3741 0.338739 -28.8494 16.1778 3.76071 -5.89777 -2.74134 5.24709 3.56285 
146.877 92.3293 164.693 -97.193 48.2727 -81.4359 -169.61 13.7358 97.5483 -76.5852 21.4732 3.34632 65.1217 4.44209 3.69659 27.4177 -0.738699 0.0408409 178.265 17.2296 95.1535 -55.0082 -15.2689 -2.83005 82.451 -14.8437 -3.78697 30.9679 -1.61856 8.2078 0.0217539 8.226 -90.4201 10.4212 -0.149238 -0.823325 -1.25001 -0.185327 -0.815964 -23.7831 0.105119 -0.830106 -3.77049 0.10509 -0.830111 91.0168 -27.8171 -105.539 45.3345 -7.25363 15.2479 -29.1109 -11.0681 -73.0155 -39.1159 2.39854 -17.9388 -88.5246 -51.4496 81.2094 -8.89077 14.151 -24.2037 36.4548 -9.25492 -92.6069 -1.96365 -0.171726 -28.3002 13.3845 4.71717 -7.1776 -2.85646 6.37763 4.41881 
